<?xml version="1.0" encoding="UTF-8"?>
<svg width="244px" height="84px" viewBox="0 0 244 84" version="1.1" xmlns="http://www.w3.org/2000/svg" xmlns:xlink="http://www.w3.org/1999/xlink">
    <!-- Generator: Sketch 45.1 (43504) - http://www.bohemiancoding.com/sketch -->
    <title>e—k</title>
    <desc>Created with Sketch.</desc>
    <defs></defs>
    <g id="Page-1" stroke="none" stroke-width="1" fill="none" fill-rule="evenodd">
        <path d="M42.0215997,36.3317837 C41.0163231,32.2625484 39.4769899,29.1273436 37.4007963,26.9260754 C35.3198267,24.7248071 32.2864491,23.5073477 28.3053002,23.2736607 C25.7031004,23.1208653 23.572208,23.4224188 21.9140688,24.1783301 C20.2586297,24.9342414 18.9648373,25.9153019 18.0325141,27.121541 C17.1027251,28.3277801 16.4855785,29.6264996 16.180272,31.0177385 C15.8764709,32.4089775 15.7325867,33.6612611 15.747852,34.774627 L42.0215997,36.3317837 Z M16.5836128,44.8353154 C17.2464697,49.9909527 18.8732345,53.7957399 21.4542055,56.249791 C24.0277826,58.7038421 27.5394906,60.0656667 31.9965442,60.3353055 C35.1919902,60.5285467 37.8853279,59.8937007 40.0815284,58.4307483 C42.2852338,56.9677959 43.5932984,55.3577849 44.0018927,53.600667 L58.0505209,54.4432843 C56.1797281,61.239196 53.0433381,65.988247 48.6353927,68.6905798 C44.2559305,71.3929126 38.8397803,72.5463265 32.368368,72.1508561 C27.8849646,71.8767233 23.7807041,70.90296 20.0482218,69.2295371 C16.3081622,67.5561142 13.0548417,65.301607 10.286934,62.465948 C7.51000813,59.630289 5.2479456,56.3078402 3.50426662,52.498502 C1.75662585,48.6891638 0.661842252,44.5488371 0.22774909,40.0773976 C-0.185540125,35.7550062 0.154698763,31.7734632 1.25363337,28.1326493 C2.36553668,24.4918354 4.14463055,21.3900568 6.59171003,18.8272205 C9.05248491,16.2643842 12.09042,14.3094725 15.703289,12.9624268 C19.3265825,11.6153811 23.418615,11.0744388 27.9732947,11.3395837 C33.0708304,11.6361865 37.5690594,12.8447532 41.4601737,14.96532 C45.3432031,17.0858869 48.5779003,19.8191753 51.1639053,23.1652673 C53.740936,26.5113593 55.6614298,30.2652167 56.929584,34.4269519 C58.1939821,38.5886871 58.7820401,42.8962219 58.7009024,47.3496854 L16.5836128,44.8353154 Z M76.6576605,36.1470208 L77.1238225,49.784843 L161.265321,54.7731373 L161.732135,41.1353152 L76.6576605,36.1470208 Z M186.799023,0 L182.711085,79.8147951 L198.637454,80.7720083 L200.04329,60.8742023 L206.761838,55.3203262 L220.77329,82.0999732 L240.138788,83.2594146 L218.773167,45.2427962 L243.405871,25.318048 L223.57232,24.1855704 L201.182672,43.7710319 L203.75513,0.957213245 L186.799023,0 Z" id="e—k" fill="#FFFFFF"></path>
    </g>
</svg>